<?xml version="1.0" encoding="UTF-8" standalone="no"?>
<svg xmlns="http://www.w3.org/2000/svg" width="512" height="512" viewBox="0 0 512 512">
  <g>
    <path d="M256 32C132.3 32 32 132.3 32 256s100.3 224 224 224 224-100.3 224-224S379.7 32 256 32zm0 48c97.2 0 176 78.8 176 176s-78.8 176-176 176S80 353.2 80 256 158.8 80 256 80zm-16 64c-8.8 0-16 7.2-16 16v48h-48c-8.8 0-16 7.2-16 16s7.2 16 16 16h48v48c0 8.8 7.2 16 16 16s16-7.2 16-16v-48h48c8.8 0 16-7.2 16-16s-7.2-16-16-16h-48v-48c0-8.8-7.2-16-16-16z" fill="#b3b3ff"/>
    <path d="M256 112c-79.5 0-144 64.5-144 144s64.5 144 144 144 144-64.5 144-144-64.5-144-144-144zm0 32c61.9 0 112 50.1 112 112s-50.1 112-112 112-112-50.1-112-112 50.1-112 112-112z" fill="#fff"/>
    <path d="M256 160c-53 0-96 43-96 96s43 96 96 96 96-43 96-96-43-96-96-96zm0 32c35.3 0 64 28.7 64 64s-28.7 64-64 64-64-28.7-64-64 28.7-64 64-64z" fill="#e6e6fa"/>
    <path d="M256 208c-26.5 0-48 21.5-48 48s21.5 48 48 48 48-21.5 48-48-21.5-48-48-48zm0 32c8.8 0 16 7.2 16 16s-7.2 16-16 16-16-7.2-16-16 7.2-16 16-16z" fill="#b3b3ff"/>
  </g>
</svg>
